<svg id="Layer_1" data-name="Layer 1" xmlns="http://www.w3.org/2000/svg" viewBox="0 0 198 128.95"><defs><style>.cls-1{fill:#ffc961;}.cls-2{fill:#a56fc8;}.cls-3{fill:#3586ba;}.cls-4{fill:#ff446e;}.cls-5{fill:#e8ebf1;}.cls-10,.cls-6{fill:#fff;}.cls-12,.cls-6{stroke:#121617;}.cls-10,.cls-12,.cls-13,.cls-6{stroke-miterlimit:10;}.cls-11,.cls-12,.cls-6{stroke-width:2.13px;}.cls-7{fill:#7acaf5;}.cls-8{fill:#4d0662;}.cls-9{fill:#ff8680;}.cls-10,.cls-13{stroke:#4d0662;}.cls-11{fill:#2ebcb9;stroke:#021833;stroke-linecap:round;stroke-linejoin:round;}.cls-12{fill:#fbbd39;}.cls-13{fill:#ffcd55;}</style></defs><title>zc-library-signup-form</title><path class="cls-1" d="M73.33,43h0a.7.7,0,0,1-.76-.61V36.28a.7.7,0,0,1,.76-.61h0a.71.71,0,0,1,.77.61v6.11A.71.71,0,0,1,73.33,43Z" transform="translate(-1 -35.67)"/><path class="cls-1" d="M77,39.33h0a.71.71,0,0,1-.61.77H70.28a.71.71,0,0,1-.61-.77h0a.7.7,0,0,1,.61-.76h6.11A.7.7,0,0,1,77,39.33Z" transform="translate(-1 -35.67)"/><path class="cls-2" d="M121.33,45h0a.7.7,0,0,1-.76-.61V38.28a.7.7,0,0,1,.76-.61h0a.71.71,0,0,1,.77.61v6.11A.71.71,0,0,1,121.33,45Z" transform="translate(-1 -35.67)"/><path class="cls-2" d="M125,41.33h0a.71.71,0,0,1-.61.77h-6.11a.71.71,0,0,1-.61-.77h0a.7.7,0,0,1,.61-.76h6.11A.7.7,0,0,1,125,41.33Z" transform="translate(-1 -35.67)"/><path class="cls-3" d="M128.33,66h0a.7.7,0,0,1-.76-.61V59.28a.7.7,0,0,1,.76-.61h0a.71.71,0,0,1,.77.61v6.11A.71.71,0,0,1,128.33,66Z" transform="translate(-1 -35.67)"/><path class="cls-3" d="M132,62.33h0a.71.71,0,0,1-.61.77h-6.11a.71.71,0,0,1-.61-.77h0a.7.7,0,0,1,.61-.76h6.11A.7.7,0,0,1,132,62.33Z" transform="translate(-1 -35.67)"/><path class="cls-4" d="M63.33,64h0a.7.7,0,0,1-.76-.61V57.28a.7.7,0,0,1,.76-.61h0a.71.71,0,0,1,.77.61v6.11A.71.71,0,0,1,63.33,64Z" transform="translate(-1 -35.67)"/><path class="cls-4" d="M67,60.33h0a.71.71,0,0,1-.61.77H60.28a.71.71,0,0,1-.61-.77h0a.7.7,0,0,1,.61-.76h6.11A.7.7,0,0,1,67,60.33Z" transform="translate(-1 -35.67)"/><path class="cls-3" d="M158,62.63a1.7,1.7,0,1,1-1.7,1.7,1.7,1.7,0,0,1,1.7-1.7m0-1.3a3,3,0,1,0,3,3,3,3,0,0,0-3-3Z" transform="translate(-1 -35.67)"/><path class="cls-2" d="M94,38.63a1.7,1.7,0,1,1-1.7,1.7,1.7,1.7,0,0,1,1.7-1.7m0-1.3a3,3,0,1,0,3,3,3,3,0,0,0-3-3Z" transform="translate(-1 -35.67)"/><path class="cls-2" d="M42,65.53a1.8,1.8,0,1,1-1.8,1.8,1.81,1.81,0,0,1,1.8-1.8m0-1.2a3,3,0,1,0,3,3,3,3,0,0,0-3-3Z" transform="translate(-1 -35.67)"/><rect class="cls-5" x="3" y="118.67" width="14" height="10" rx="4.5" ry="4.5"/><rect class="cls-5" x="181" y="118.67" width="14" height="10" rx="4.5" ry="4.5"/><rect class="cls-5" x="21" y="40.67" width="14" height="10" rx="4.5" ry="4.5"/><rect class="cls-5" x="163" y="39.67" width="14" height="10" rx="4.5" ry="4.5"/><rect class="cls-5" y="79.67" width="34" height="10" rx="4.5" ry="4.5"/><rect class="cls-5" x="164" y="79.67" width="34" height="10" rx="4.5" ry="4.5"/><path class="cls-5" d="M173.5,134.33H149v-9h8.5a4.51,4.51,0,0,0,4.5-4.5v-1a4.52,4.52,0,0,0-4.5-4.5H149v-10h7.5a4.51,4.51,0,0,0,4.5-4.5v-1a4.52,4.52,0,0,0-4.5-4.5H149v-9h2.5a4.51,4.51,0,0,0,4.5-4.5v-1a4.52,4.52,0,0,0-4.5-4.5H48.5a4.52,4.52,0,0,0-4.5,4.5v1a4.51,4.51,0,0,0,4.5,4.5H51v9H43.5a4.52,4.52,0,0,0-4.5,4.5v1a4.51,4.51,0,0,0,4.5,4.5H51v10H42.5a4.52,4.52,0,0,0-4.5,4.5v1a4.51,4.51,0,0,0,4.5,4.5H51v9H26.5a4.52,4.52,0,0,0-4.5,4.5v1a4.51,4.51,0,0,0,4.5,4.5H51v10H31.5a4.52,4.52,0,0,0-4.5,4.5v1a4.51,4.51,0,0,0,4.5,4.5h137a4.51,4.51,0,0,0,4.5-4.5v-1a4.52,4.52,0,0,0-4.5-4.5H149v-10h24.5a4.51,4.51,0,0,0,4.5-4.5v-1A4.52,4.52,0,0,0,173.5,134.33Z" transform="translate(-1 -35.67)"/><rect class="cls-5" y="59.67" width="31" height="10" rx="4.5" ry="4.5"/><rect class="cls-5" x="167" y="59.67" width="31" height="10" rx="4.5" ry="4.5"/><path class="cls-6" d="M123.59,104.27" transform="translate(-1 -35.67)"/><rect class="cls-7" x="78.94" y="57.78" width="69.06" height="70.17" rx="4.7" ry="4.7"/><path class="cls-8" d="M144.3,94.45a3.7,3.7,0,0,1,3.7,3.7v60.76a3.71,3.71,0,0,1-3.7,3.71H84.65a3.71,3.71,0,0,1-3.71-3.71V98.15a3.7,3.7,0,0,1,3.71-3.7H144.3m0-2H84.65a5.71,5.71,0,0,0-5.71,5.7v60.76a5.71,5.71,0,0,0,5.71,5.71H144.3a5.71,5.71,0,0,0,5.7-5.71V98.15a5.7,5.7,0,0,0-5.7-5.7Z" transform="translate(-1 -35.67)"/><path class="cls-9" d="M79.94,104.22V96.43a3,3,0,0,1,3-3H146a3,3,0,0,1,3,3v7.79Z" transform="translate(-1 -35.67)"/><path class="cls-8" d="M146,94.44a2,2,0,0,1,2,2v6.79H80.94V96.43a2,2,0,0,1,2-2H146m0-2H82.94a4,4,0,0,0-4,4v8.79H150V96.43a4,4,0,0,0-4-4Z" transform="translate(-1 -35.67)"/><rect class="cls-10" x="106.65" y="81.68" width="32.3" height="4.52" rx="0.62" ry="0.62"/><rect class="cls-11" x="96.71" y="75" width="12.04" height="4.52" rx="0.62" ry="0.62"/><rect class="cls-10" x="106.65" y="93.39" width="32.3" height="4.52" rx="0.62" ry="0.62"/><rect class="cls-12" x="96.67" y="107.21" width="32.5" height="5.89" rx="1.23" ry="1.23"/><path class="cls-6" d="M94,84.5" transform="translate(-1 -35.67)"/><rect class="cls-7" x="55.99" y="30.07" width="74.14" height="97.84" rx="4.7" ry="4.7"/><path class="cls-8" d="M126.43,66.74a3.7,3.7,0,0,1,3.7,3.7v88.43a3.7,3.7,0,0,1-3.7,3.7H61.69a3.7,3.7,0,0,1-3.7-3.7V70.44a3.7,3.7,0,0,1,3.7-3.7h64.74m0-2H61.69a5.71,5.71,0,0,0-5.7,5.7v88.43a5.7,5.7,0,0,0,5.7,5.7h64.74a5.7,5.7,0,0,0,5.7-5.7V70.44a5.71,5.71,0,0,0-5.7-5.7Z" transform="translate(-1 -35.67)"/><path class="cls-9" d="M57,77.07V70a4.31,4.31,0,0,1,4.3-4.3h65.55a4.31,4.31,0,0,1,4.3,4.3v7.32Z" transform="translate(-1 -35.67)"/><path class="cls-8" d="M126.84,66.73a3.3,3.3,0,0,1,3.3,3.3v6.32L58,76.07V70a3.3,3.3,0,0,1,3.3-3.3h65.55m0-2H61.29A5.31,5.31,0,0,0,56,70v8h2l72.15.28h2V70a5.31,5.31,0,0,0-5.3-5.3Z" transform="translate(-1 -35.67)"/><rect class="cls-10" x="85.72" y="54.65" width="34.75" height="4.86" rx="0.62" ry="0.62"/><rect class="cls-10" x="65.19" y="54.65" width="12.96" height="4.86" rx="0.62" ry="0.62"/><rect class="cls-10" x="85.72" y="67.23" width="34.75" height="4.86" rx="0.62" ry="0.62"/><rect class="cls-9" x="64.69" y="66.73" width="13.96" height="5.86" rx="1.12" ry="1.12"/><path class="cls-8" d="M78.53,102.9a.61.61,0,0,1,.61.62v3.62a.61.61,0,0,1-.61.62H66.8a.61.61,0,0,1-.61-.62v-3.62a.61.61,0,0,1,.61-.62H78.53m0-1H66.8a1.62,1.62,0,0,0-1.61,1.62v3.62a1.62,1.62,0,0,0,1.61,1.62H78.53a1.62,1.62,0,0,0,1.61-1.62v-3.62a1.62,1.62,0,0,0-1.61-1.62Z" transform="translate(-1 -35.67)"/><rect class="cls-10" x="85.72" y="79.84" width="34.75" height="4.86" rx="0.62" ry="0.62"/><rect class="cls-10" x="65.19" y="79.84" width="12.96" height="4.86" rx="0.62" ry="0.62"/><rect class="cls-10" x="85.72" y="92.43" width="34.75" height="4.86" rx="0.62" ry="0.62"/><rect class="cls-9" x="64.69" y="91.93" width="13.96" height="5.86" rx="1.12" ry="1.12"/><path class="cls-8" d="M78.53,128.1a.61.61,0,0,1,.61.61v3.63a.61.61,0,0,1-.61.61H66.8a.61.61,0,0,1-.61-.61v-3.63a.61.61,0,0,1,.61-.61H78.53m0-1H66.8a1.61,1.61,0,0,0-1.61,1.61v3.63A1.61,1.61,0,0,0,66.8,134H78.53a1.61,1.61,0,0,0,1.61-1.61v-3.63a1.61,1.61,0,0,0-1.61-1.61Z" transform="translate(-1 -35.67)"/><rect class="cls-13" x="74.98" y="107.96" width="34.97" height="6.35" rx="1.23" ry="1.23"/></svg>