<svg xmlns="http://www.w3.org/2000/svg" viewBox="0 0 198 128.67"><defs><style>.cls-1{fill:#ffc961;}.cls-2{fill:#a56fc8;}.cls-3{fill:#3586ba;}.cls-4{fill:#ff446e;}.cls-5{fill:#e8ebf1;}.cls-13,.cls-6{fill:#fff;}.cls-7{fill:#7acaf5;}.cls-10,.cls-12,.cls-7,.cls-8{stroke:#4d0662;}.cls-10,.cls-12,.cls-13,.cls-7,.cls-8{stroke-miterlimit:10;}.cls-12,.cls-7,.cls-8{stroke-width:2px;}.cls-10,.cls-8{fill:#ff8680;}.cls-9{fill:#121617;}.cls-11{fill:#fdbe39;}.cls-12{fill:#ffcd55;}.cls-13{stroke:#121617;}</style></defs><title>zc-wa-empty</title><g id="Layer_2" data-name="Layer 2"><path class="cls-1" d="M73.33,8h0a.7.7,0,0,1-.76-.61V1.28a.7.7,0,0,1,.76-.61h0a.71.71,0,0,1,.77.61V7.39A.71.71,0,0,1,73.33,8Z" transform="translate(-1 -0.67)"/><path class="cls-1" d="M77,4.33h0a.71.71,0,0,1-.61.77H70.28a.71.71,0,0,1-.61-.77h0a.7.7,0,0,1,.61-.76h6.11A.7.7,0,0,1,77,4.33Z" transform="translate(-1 -0.67)"/><path class="cls-2" d="M121.33,10h0a.7.7,0,0,1-.76-.61V3.28a.7.7,0,0,1,.76-.61h0a.71.71,0,0,1,.77.61V9.39A.71.71,0,0,1,121.33,10Z" transform="translate(-1 -0.67)"/><path class="cls-2" d="M125,6.33h0a.71.71,0,0,1-.61.77h-6.11a.71.71,0,0,1-.61-.77h0a.7.7,0,0,1,.61-.76h6.11A.7.7,0,0,1,125,6.33Z" transform="translate(-1 -0.67)"/><path class="cls-3" d="M128.33,31h0a.7.7,0,0,1-.76-.61V24.28a.7.7,0,0,1,.76-.61h0a.71.71,0,0,1,.77.61v6.11A.71.71,0,0,1,128.33,31Z" transform="translate(-1 -0.67)"/><path class="cls-3" d="M132,27.33h0a.71.71,0,0,1-.61.77h-6.11a.71.71,0,0,1-.61-.77h0a.7.7,0,0,1,.61-.76h6.11A.7.7,0,0,1,132,27.33Z" transform="translate(-1 -0.67)"/><path class="cls-4" d="M63.33,29h0a.7.7,0,0,1-.76-.61V22.28a.7.7,0,0,1,.76-.61h0a.71.71,0,0,1,.77.61v6.11A.71.71,0,0,1,63.33,29Z" transform="translate(-1 -0.67)"/><path class="cls-4" d="M67,25.33h0a.71.71,0,0,1-.61.77H60.28a.71.71,0,0,1-.61-.77h0a.7.7,0,0,1,.61-.76h6.11A.7.7,0,0,1,67,25.33Z" transform="translate(-1 -0.67)"/><path class="cls-3" d="M158,27.63a1.7,1.7,0,1,1-1.7,1.7,1.7,1.7,0,0,1,1.7-1.7m0-1.3a3,3,0,1,0,3,3,3,3,0,0,0-3-3Z" transform="translate(-1 -0.67)"/><path class="cls-2" d="M94,3.63a1.7,1.7,0,1,1-1.7,1.7A1.7,1.7,0,0,1,94,3.63m0-1.3a3,3,0,1,0,3,3,3,3,0,0,0-3-3Z" transform="translate(-1 -0.67)"/><path class="cls-2" d="M42,30.53a1.8,1.8,0,1,1-1.8,1.8,1.81,1.81,0,0,1,1.8-1.8m0-1.2a3,3,0,1,0,3,3,3,3,0,0,0-3-3Z" transform="translate(-1 -0.67)"/><rect class="cls-5" x="3" y="118.67" width="14" height="10" rx="4.5" ry="4.5"/><rect class="cls-5" x="181" y="118.67" width="14" height="10" rx="4.5" ry="4.5"/><rect class="cls-5" x="21" y="40.67" width="14" height="10" rx="4.5" ry="4.5"/><rect class="cls-5" x="163" y="39.67" width="14" height="10" rx="4.5" ry="4.5"/><rect class="cls-5" y="79.67" width="34" height="10" rx="4.5" ry="4.5"/><rect class="cls-5" x="164" y="79.67" width="34" height="10" rx="4.5" ry="4.5"/><path class="cls-5" d="M173.5,99.33H149v-9h8.5a4.51,4.51,0,0,0,4.5-4.5v-1a4.52,4.52,0,0,0-4.5-4.5H149v-10h7.5a4.51,4.51,0,0,0,4.5-4.5v-1a4.52,4.52,0,0,0-4.5-4.5H149v-9h2.5a4.51,4.51,0,0,0,4.5-4.5v-1a4.52,4.52,0,0,0-4.5-4.5H48.5a4.52,4.52,0,0,0-4.5,4.5v1a4.51,4.51,0,0,0,4.5,4.5H51v9H43.5a4.52,4.52,0,0,0-4.5,4.5v1a4.51,4.51,0,0,0,4.5,4.5H51v10H42.5a4.52,4.52,0,0,0-4.5,4.5v1a4.51,4.51,0,0,0,4.5,4.5H51v9H26.5a4.52,4.52,0,0,0-4.5,4.5v1a4.51,4.51,0,0,0,4.5,4.5H51v10H31.5a4.52,4.52,0,0,0-4.5,4.5v1a4.51,4.51,0,0,0,4.5,4.5h137a4.51,4.51,0,0,0,4.5-4.5v-1a4.52,4.52,0,0,0-4.5-4.5H149v-10h24.5a4.51,4.51,0,0,0,4.5-4.5v-1A4.52,4.52,0,0,0,173.5,99.33Z" transform="translate(-1 -0.67)"/><rect class="cls-5" y="59.67" width="31" height="10" rx="4.5" ry="4.5"/><rect class="cls-5" x="167" y="59.67" width="31" height="10" rx="4.5" ry="4.5"/></g><g id="zc-wa-empty"><path class="cls-6" d="M144.28,55H47.91a1.18,1.18,0,0,0-1.19,1.17h0v71a1.18,1.18,0,0,0,1.18,1.18h96.38a1.19,1.19,0,0,0,1.19-1.17h0v-71A1.18,1.18,0,0,0,144.29,55Z" transform="translate(-1 -0.67)"/><rect class="cls-7" x="45.13" y="54.27" width="98.74" height="73.32" rx="0.79" ry="0.79"/><path class="cls-8" d="M46.16,64.11v-9c0-.28.53-.51,1.19-.51h96.34c.65,0,1.19.23,1.19.51v9Z" transform="translate(-1 -0.67)"/><rect class="cls-6" x="50.5" y="104.56" width="34.89" height="4.8"/><rect class="cls-6" x="104.48" y="104.7" width="34.2" height="4.52"/><rect class="cls-6" x="91.86" y="71.57" width="46.83" height="4.52"/><rect class="cls-6" x="91.86" y="81.63" width="46.83" height="4.52"/><rect class="cls-6" x="91.86" y="91.71" width="46.83" height="4.52"/><polygon class="cls-6" points="138.69 122.22 74.19 122.22 50.32 122.22 50.32 117.42 138.69 117.42 138.69 122.22"/><circle class="cls-6" cx="50.53" cy="58.69" r="1.39"/><circle class="cls-6" cx="54.58" cy="58.65" r="1.39"/><circle class="cls-6" cx="58.55" cy="58.65" r="1.39"/><rect class="cls-6" x="50.75" y="71.6" width="27.55" height="25.73" rx="0.39" ry="0.39"/><path class="cls-9" d="M78.91,72.67V97.61H52.13V72.67H78.91m0-.79H52.13a.79.79,0,0,0-.79.79V97.61a.8.8,0,0,0,.79.79H78.91a.79.79,0,0,0,.78-.79V72.67A.78.78,0,0,0,78.91,71.88Z" transform="translate(-1 -0.67)"/><path class="cls-10" d="M51.72,98V90.21l5.65-2.42,5.39,4.53a.36.36,0,0,0,.46,0L72,86.89l7.09,5.67v5.38Z" transform="translate(-1 -0.67)"/><path d="M72,87.42l6.76,5.38v4.79H52.08V90.51l5.19-2.23,5.21,4.38a.8.8,0,0,0,.92.06L72,87.42m.06-1L63,92l-5.58-4.72L51.3,89.94v8.39H79.51v-6l-7.49-6Z" transform="translate(-1 -0.67)"/><circle class="cls-11" cx="61.33" cy="80.03" r="3.28"/><circle class="cls-12" cx="145.68" cy="102.17" r="25.32"/><path class="cls-13" d="M131.83,104.18h.25a1.51,1.51,0,0,0,1.13-.63l3.15-3.44a1.45,1.45,0,0,0-2.15-1.94l-.26.29a13.38,13.38,0,0,1,25.89.15,1.45,1.45,0,0,0,2.81-.73A16.29,16.29,0,0,0,131,98.1l-.16-.29a1.47,1.47,0,0,0-2-.54,1.45,1.45,0,0,0-.53,2l2.41,4.2A1.45,1.45,0,0,0,131.83,104.18Z" transform="translate(-1 -0.67)"/><path class="cls-13" d="M165.08,107.61l-2.41-4.2a1.46,1.46,0,0,0-.89-.67h-.62a1.38,1.38,0,0,0-.84.51l-3.15,3.54a1.45,1.45,0,1,0,2.17,1.92l.18-.19c-.06.21-.13.42-.2.63a13.38,13.38,0,0,1-25.55-.41,1.46,1.46,0,0,0-1.87-.86,1.43,1.43,0,0,0-.91,1.64,16.29,16.29,0,0,0,31.09.51q.19-.63.36-1.26l.16.27a1.45,1.45,0,1,0,2.52-1.45Z" transform="translate(-1 -0.67)"/><path class="cls-13" d="M146.52,104.68c-2.65,0-7.87,1.24-7.87,3.81v1.91H154.4v-1.91C154.39,106,149.18,104.68,146.52,104.68Z" transform="translate(-1 -0.67)"/><circle class="cls-13" cx="145.52" cy="98.27" r="3.92"/></g></svg>