<svg id="Layer_1" data-name="Layer 1" xmlns="http://www.w3.org/2000/svg" viewBox="0 0 31.45 40.39"><defs><style>.cls-1,.cls-5{fill:#fff;}.cls-1{stroke:#121617;}.cls-1,.cls-6{stroke-miterlimit:10;stroke-width:0.2px;}.cls-2{fill:#7acaf5;}.cls-3{fill:#4d0662;}.cls-4{fill:#ff8680;}.cls-6{fill:#ffcd55;stroke:#4d0662;}</style></defs><title>zc_signup_li</title><path class="cls-1" d="M22.06,9.16" transform="translate(-6.31 -1.54)"/><rect class="cls-2" x="0.11" y="0.1" width="31.24" height="40.19" rx="1.34" ry="1.34"/><path class="cls-3" d="M36.32,1.74A1.25,1.25,0,0,1,37.56,3V40.49a1.25,1.25,0,0,1-1.24,1.24H7.76a1.25,1.25,0,0,1-1.24-1.24V3A1.25,1.25,0,0,1,7.76,1.74H36.32m0-.2H7.76A1.45,1.45,0,0,0,6.32,3V40.49a1.45,1.45,0,0,0,1.44,1.44H36.32a1.45,1.45,0,0,0,1.44-1.44V3a1.45,1.45,0,0,0-1.44-1.44Z" transform="translate(-6.31 -1.54)"/><path class="cls-4" d="M6.41,5.72V3.14a1.51,1.51,0,0,1,1.5-1.48H36.14a1.5,1.5,0,0,1,1.51,1.48V5.86Z" transform="translate(-6.31 -1.54)"/><path class="cls-3" d="M7.91,1.76H36.15a1.4,1.4,0,0,1,1.4,1.38V5.76l-31-.14V3.14h0a1.4,1.4,0,0,1,1.4-1.37m0-.2a1.61,1.61,0,0,0-1.6,1.57V5.82h.2l31,.14h.2V3.14a1.61,1.61,0,0,0-1.6-1.58H7.91Z" transform="translate(-6.31 -1.54)"/><rect class="cls-5" x="12.74" y="9.98" width="15.25" height="2.33" rx="0.68" ry="0.68"/><path class="cls-3" d="M33.62,11.67a.53.53,0,0,1,.53.53v1a.53.53,0,0,1-.53.53H19.73a.53.53,0,0,1-.53-.53v-1a.53.53,0,0,1,.53-.53H33.62m0-.3H19.73a.83.83,0,0,0-.83.83v1a.83.83,0,0,0,.83.83H33.62a.83.83,0,0,0,.83-.83v-1a.83.83,0,0,0-.83-.83Z" transform="translate(-6.31 -1.54)"/><rect class="cls-5" x="3.92" y="9.98" width="5.88" height="2.33" rx="0.68" ry="0.68"/><path class="cls-3" d="M15.43,11.67a.53.53,0,0,1,.53.53v1a.53.53,0,0,1-.53.53H10.91a.53.53,0,0,1-.53-.53v-1a.53.53,0,0,1,.53-.53h4.52m0-.3H10.91a.83.83,0,0,0-.83.83v1a.83.83,0,0,0,.83.83h4.52a.83.83,0,0,0,.83-.83v-1a.83.83,0,0,0-.83-.83Z" transform="translate(-6.31 -1.54)"/><rect class="cls-5" x="12.74" y="15.24" width="15.25" height="2.33" rx="0.68" ry="0.68"/><path class="cls-3" d="M33.62,16.93a.53.53,0,0,1,.53.53v1a.53.53,0,0,1-.53.53H19.73a.53.53,0,0,1-.53-.53v-1a.53.53,0,0,1,.53-.53H33.62m0-.3H19.73a.83.83,0,0,0-.83.83v1a.83.83,0,0,0,.83.83H33.62a.83.83,0,0,0,.83-.83v-1a.83.83,0,0,0-.83-.83Z" transform="translate(-6.31 -1.54)"/><rect class="cls-4" x="3.97" y="15.29" width="5.78" height="2.23" rx="0.63" ry="0.63"/><path class="cls-3" d="M15.43,16.93a.53.53,0,0,1,.53.53v1a.53.53,0,0,1-.53.53H10.91a.53.53,0,0,1-.53-.53v-1a.53.53,0,0,1,.53-.53h4.52m0-.2H10.91a.73.73,0,0,0-.73.73v1a.73.73,0,0,0,.73.73h4.52a.73.73,0,0,0,.73-.73v-1a.73.73,0,0,0-.73-.73Z" transform="translate(-6.31 -1.54)"/><rect class="cls-5" x="12.74" y="20.5" width="15.25" height="2.33" rx="0.68" ry="0.68"/><path class="cls-3" d="M33.62,22.19a.53.53,0,0,1,.53.53v1a.53.53,0,0,1-.53.53H19.73a.53.53,0,0,1-.53-.53v-1a.53.53,0,0,1,.53-.53H33.62m0-.3H19.73a.83.83,0,0,0-.83.83v1a.83.83,0,0,0,.83.83H33.62a.83.83,0,0,0,.83-.83v-1a.83.83,0,0,0-.83-.83Z" transform="translate(-6.31 -1.54)"/><rect class="cls-5" x="3.92" y="20.5" width="5.88" height="2.33" rx="0.68" ry="0.68"/><path class="cls-3" d="M15.43,22.19a.53.53,0,0,1,.53.53v1a.53.53,0,0,1-.53.53H10.91a.53.53,0,0,1-.53-.53v-1a.53.53,0,0,1,.53-.53h4.52m0-.3H10.91a.83.83,0,0,0-.83.83v1a.83.83,0,0,0,.83.83h4.52a.83.83,0,0,0,.83-.83v-1a.83.83,0,0,0-.83-.83Z" transform="translate(-6.31 -1.54)"/><rect class="cls-5" x="12.74" y="25.76" width="15.25" height="2.33" rx="0.68" ry="0.68"/><path class="cls-3" d="M33.62,27.45a.53.53,0,0,1,.53.53v1a.53.53,0,0,1-.53.53H19.73A.53.53,0,0,1,19.2,29V28a.53.53,0,0,1,.53-.53H33.62m0-.3H19.73a.83.83,0,0,0-.83.83v1a.83.83,0,0,0,.83.83H33.62a.83.83,0,0,0,.83-.83V28a.83.83,0,0,0-.83-.83Z" transform="translate(-6.31 -1.54)"/><rect class="cls-4" x="3.97" y="25.81" width="5.78" height="2.23" rx="0.63" ry="0.63"/><path class="cls-3" d="M15.43,27.45A.53.53,0,0,1,16,28v1a.53.53,0,0,1-.53.53H10.91a.53.53,0,0,1-.53-.53V28a.53.53,0,0,1,.53-.53h4.52m0-.2H10.91a.73.73,0,0,0-.73.73v1a.73.73,0,0,0,.73.73h4.52a.73.73,0,0,0,.73-.73V28a.73.73,0,0,0-.73-.73Z" transform="translate(-6.31 -1.54)"/><rect class="cls-6" x="8.27" y="32.38" width="15.04" height="2.65" rx="0.69" ry="0.69"/></svg>